<svg version="1.1" id="Layer_1" xmlns="http://www.w3.org/2000/svg" xmlns:xlink="http://www.w3.org/1999/xlink" x="0px" y="0px"
	 width="100%" viewBox="0 0 2053 1829" enable-background="new 0 0 2053 1829" xml:space="preserve">
<path fill="#FF0000" opacity="1.000000" stroke="none" 
	d="
M1025.000000,1.000000 
	C1366.030884,1.000000 1707.061890,1.000000 2048.546387,1.447632 
	C2049.000000,611.263489 2049.000000,1220.631714 2049.000000,1830.000000 
	C1707.969116,1830.000000 1366.938110,1830.000000 1025.453613,1829.541992 
	C1024.999878,1712.778198 1024.999634,1596.472168 1025.462891,1480.096680 
	C1028.075562,1480.017944 1030.224854,1480.001099 1032.374023,1480.001099 
	C1364.694092,1480.000000 1697.014160,1480.000000 2029.334229,1480.000000 
	C2031.440063,1480.000000 2033.546021,1480.000000 2035.647339,1480.000000 
	C2035.647339,1474.679077 2035.647339,1469.959473 2035.647339,1464.716064 
	C1957.910889,1464.716064 1880.526001,1464.716064 1803.435059,1464.716064 
	C1802.933105,1456.908813 1802.405518,1449.653931 1802.016846,1442.391479 
	C1801.610229,1434.795166 1801.306885,1427.192871 1801.011475,1419.591064 
	C1800.323975,1401.891235 1799.682007,1384.189819 1798.996094,1366.489868 
	C1798.348877,1349.788574 1797.654053,1333.089111 1797.007080,1316.387817 
	C1796.321411,1298.687866 1795.681763,1280.986328 1794.995972,1263.286377 
	C1794.348877,1246.585083 1793.655029,1229.885498 1793.005005,1213.184326 
	C1792.322632,1195.651001 1791.672241,1178.116577 1790.999146,1160.582764 
	C1790.338867,1143.381958 1789.667847,1126.181641 1789.001099,1108.981079 
	C1788.334473,1091.780518 1787.660889,1074.580078 1787.003052,1057.379150 
	C1786.655029,1048.279541 1786.316162,1039.179321 1786.005249,1030.078369 
	C1785.326172,1010.211670 1784.659912,990.344482 1784.003296,970.476990 
	C1783.652954,959.877380 1783.323486,949.277039 1783.003052,938.676453 
	C1782.657349,927.243286 1782.316528,915.809998 1782.004761,904.375854 
	C1781.651978,891.442932 1781.315430,878.509521 1781.005249,865.575500 
	C1780.651001,850.809265 1780.304688,836.042786 1780.007568,821.275391 
	C1779.643311,803.176086 1779.206055,785.077026 1779.025635,766.975586 
	C1778.611084,725.377380 1778.331909,683.777893 1778.003052,642.178894 
	C1777.979614,639.204956 1778.000000,636.230652 1778.000000,633.256531 
	C1777.542847,633.016907 1777.085815,632.777344 1776.628662,632.537781 
	C1775.752563,633.691589 1774.409302,634.722290 1774.068237,636.017029 
	C1763.004883,678.013855 1752.250244,720.093140 1740.988159,762.036194 
	C1732.301147,794.388916 1723.260254,826.652588 1713.894409,858.815430 
	C1703.119263,895.818176 1692.015625,932.728699 1680.667725,969.560059 
	C1672.812378,995.055603 1664.162842,1020.305359 1656.122925,1045.745483 
	C1648.132690,1071.028076 1640.528687,1096.432373 1632.631836,1121.744873 
	C1622.847290,1153.107788 1612.882935,1184.414551 1603.096191,1215.776855 
	C1595.197510,1241.088745 1587.504028,1266.464600 1579.617065,1291.780151 
	C1570.183716,1322.059448 1560.647095,1352.306519 1551.144775,1382.564331 
	C1544.905884,1402.430420 1538.356445,1422.206909 1532.606445,1442.213379 
	C1531.184814,1447.159180 1529.226807,1448.103882 1524.631226,1448.092773 
	C1466.467285,1447.951782 1408.302734,1448.000000 1350.138428,1448.000000 
	C1348.172852,1448.000000 1346.207153,1448.000000 1344.741333,1448.000000 
	C1341.731812,1437.567017 1338.769531,1427.752197 1336.073242,1417.864746 
	C1328.200317,1388.994751 1320.538086,1360.067017 1312.594727,1331.216675 
	C1305.213623,1304.408447 1297.484131,1277.696411 1290.078857,1250.894897 
	C1282.456055,1223.306030 1275.108887,1195.641357 1267.512573,1168.045166 
	C1260.780151,1143.587646 1253.781128,1119.203491 1247.063721,1094.741821 
	C1239.139771,1065.886353 1231.263916,1037.016357 1223.601074,1008.090576 
	C1214.603760,974.127991 1205.534302,940.178894 1197.094971,906.075745 
	C1188.885742,872.902649 1181.356445,839.559998 1173.675659,806.257874 
	C1168.335205,783.102600 1162.869629,759.966003 1158.132568,736.684204 
	C1151.730957,705.221008 1145.993408,673.622803 1139.904419,642.095459 
	C1139.430176,639.639954 1138.432495,637.285522 1137.678101,634.884094 
	C1137.174927,634.994751 1136.671753,635.105469 1136.168457,635.216125 
	C1135.446045,647.153625 1134.602905,659.085388 1134.030396,671.030090 
	C1133.246094,687.391724 1132.657104,703.762817 1132.003906,720.130615 
	C1131.324097,737.164001 1130.662354,754.198120 1130.002075,771.232300 
	C1129.328857,788.599304 1128.669556,805.966736 1127.999878,823.333923 
	C1127.336548,840.534546 1126.677979,857.735535 1125.998413,874.935547 
	C1125.344971,891.470032 1124.690308,908.004456 1123.993408,924.537109 
	C1123.359741,939.572449 1122.689209,954.606384 1121.996826,969.639099 
	C1121.357910,983.507812 1120.695190,997.375488 1119.992798,1011.241089 
	C1119.366089,1023.610474 1118.658569,1035.975830 1118.009766,1048.344116 
	C1117.325928,1061.377319 1116.648071,1074.410889 1116.006348,1087.446167 
	C1115.315552,1101.479004 1114.655029,1115.513428 1114.007812,1129.548340 
	C1113.322144,1144.414795 1112.692505,1159.283936 1111.992676,1174.149780 
	C1111.363159,1187.518921 1110.644775,1200.883789 1110.014648,1214.252808 
	C1109.314087,1229.118652 1108.685059,1243.987915 1107.995483,1258.854248 
	C1107.352051,1272.722778 1106.643311,1286.588013 1106.012085,1300.457031 
	C1105.312622,1315.822876 1104.708374,1331.193237 1103.987549,1346.558105 
	C1103.383911,1359.428345 1102.631226,1372.291626 1102.018921,1385.161499 
	C1101.303833,1400.193237 1100.617065,1415.226929 1100.017334,1430.263672 
	C1099.574829,1441.359375 1099.297852,1452.461548 1098.913696,1463.559692 
	C1098.898682,1463.994873 1098.540283,1464.418213 1098.388672,1464.745972 
	C1025.310791,1464.745972 952.376282,1464.745972 878.505920,1464.745972 
	C900.777832,1115.426880 923.029907,766.419617 945.308228,417.000000 
	C947.476562,417.000000 949.437073,417.000000 951.397583,417.000000 
	C1051.393555,417.000000 1151.389648,417.000000 1251.385620,417.000000 
	C1261.812378,417.000000 1261.946045,416.959778 1264.886597,426.724457 
	C1271.311401,448.058655 1277.669678,469.413696 1283.902588,490.804657 
	C1292.864258,521.560791 1301.656860,552.366028 1310.583496,583.132385 
	C1318.739746,611.243896 1326.945801,639.341064 1335.189331,667.427185 
	C1344.944092,700.661926 1355.035645,733.800781 1364.467163,767.126587 
	C1372.040039,793.884521 1378.994629,820.820984 1385.949585,847.749023 
	C1392.337158,872.480225 1398.430664,897.288330 1404.522339,922.094910 
	C1411.080322,948.800232 1417.747681,975.483032 1423.881592,1002.286865 
	C1429.692993,1027.681152 1434.977905,1053.197876 1440.300537,1078.701294 
	C1444.360718,1098.155640 1448.063354,1117.684692 1452.108398,1137.142456 
	C1452.447632,1138.774048 1454.181763,1140.115601 1456.060791,1142.669312 
	C1458.202515,1134.164551 1459.864380,1127.553101 1461.532593,1120.943115 
	C1471.685181,1080.713623 1481.794312,1040.473145 1492.009155,1000.259460 
	C1498.697388,973.929321 1505.367188,947.592346 1512.361816,921.342773 
	C1519.019043,896.359253 1526.033691,871.470337 1532.989258,846.567200 
	C1540.950684,818.062988 1548.614868,789.466675 1557.160034,761.137085 
	C1565.239746,734.351013 1574.334839,707.871948 1582.908325,681.233765 
	C1591.981201,653.044434 1600.941040,624.818848 1609.995361,596.623535 
	C1618.949707,568.739319 1627.977905,540.878723 1636.941406,512.997437 
	C1646.652588,482.789764 1656.418823,452.598969 1665.910400,422.322266 
	C1667.239136,418.083954 1669.173950,416.897644 1673.492188,416.903076 
	C1773.154785,417.028625 1872.817383,417.000000 1972.480103,417.000000 
	C1974.123901,417.000000 1975.767700,417.000000 1978.065918,417.000000 
	C1978.723877,426.078003 1979.426636,434.876953 1979.984253,443.685089 
	C1980.713867,455.215057 1981.356934,466.750793 1981.986694,478.286804 
	C1983.012573,497.086578 1983.980469,515.889526 1985.006592,534.689331 
	C1985.636230,546.225342 1986.356934,557.756409 1986.986572,569.292419 
	C1988.012573,588.092224 1988.980469,606.895081 1990.006470,625.694885 
	C1990.636108,637.230896 1991.353027,648.762146 1991.986694,660.297974 
	C1992.684082,672.997070 1993.311768,685.700073 1994.005249,698.399414 
	C1994.644165,710.101624 1995.347656,721.800293 1995.990845,733.502319 
	C1996.679688,746.035217 1997.318115,758.570862 1998.002930,771.103943 
	C1998.651489,782.972351 1999.342163,794.838440 1999.994995,806.706665 
	C2000.675171,819.073303 2001.324951,831.441589 2002.000610,843.808472 
	C2002.658203,855.843079 2003.328857,867.876953 2003.999512,879.910828 
	C2004.661133,891.778503 2005.345581,903.644897 2005.991943,915.513367 
	C2007.006714,934.147034 2007.991455,952.782410 2009.001953,971.416321 
	C2009.654541,983.451050 2010.334106,995.484436 2010.994751,1007.518738 
	C2011.999512,1025.819702 2012.995728,1044.120972 2014.000366,1062.421997 
	C2014.661011,1074.456421 2015.334351,1086.489990 2015.994995,1098.524414 
	C2016.999756,1116.825439 2017.995728,1135.126831 2019.000244,1153.427856 
	C2019.660767,1165.462158 2020.333252,1177.495972 2020.995239,1189.530151 
	C2021.666382,1201.730835 2022.331787,1213.931641 2022.998901,1226.132446 
	C2023.665894,1238.333252 2024.328003,1250.534180 2024.999268,1262.734741 
	C2025.661255,1274.769043 2026.338989,1286.802612 2026.996582,1298.837158 
	C2027.672241,1311.204102 2028.321899,1323.572510 2029.001709,1335.939209 
	C2029.654175,1347.807373 2030.420044,1359.670166 2030.974121,1371.542725 
	C2031.729736,1387.739258 2032.312500,1403.943848 2033.031494,1420.142212 
	C2033.100342,1421.690674 2033.610107,1423.219727 2033.915161,1424.757812 
	C2034.397827,1424.696899 2034.880371,1424.635864 2035.363037,1424.574951 
	C2035.363037,1083.156616 2035.363037,741.738342 2035.363037,400.000000 
	C2033.230347,400.000000 2031.089600,400.000000 2028.948853,400.000000 
	C1696.462158,400.000000 1363.975342,400.000305 1031.488647,399.993103 
	C1029.325684,399.993073 1027.162598,399.889099 1024.999878,399.389709 
	C1025.000122,266.297150 1025.000000,133.648575 1025.000000,1.000000 
M2034.088135,1426.994019 
	C2034.088135,1431.288208 2034.088135,1435.582397 2034.088135,1439.876587 
	C2034.906860,1439.800049 2035.725586,1439.723511 2036.544434,1439.646973 
	C2035.878906,1435.170166 2035.213379,1430.693237 2034.088135,1426.994019 
z"/>
<path fill="#FFFFFF" opacity="1.000000" stroke="none" 
	d="
M1024.541992,1.000000 
	C1025.000000,133.648575 1025.000122,266.297150 1024.535889,399.466949 
	C847.224365,399.992096 670.376953,399.993347 493.529510,400.036835 
	C491.687988,400.037292 489.846558,400.593201 487.717285,400.869263 
	C481.577393,400.565796 475.726288,400.064087 469.873108,400.038849 
	C447.556305,399.942627 425.238525,399.927856 402.921936,400.044464 
	C396.331543,400.078888 389.743988,400.646240 382.929016,400.585754 
	C382.043243,400.135040 381.383514,400.009064 380.723816,400.009033 
	C262.418793,400.000214 144.113785,399.999451 25.808784,400.017487 
	C24.884897,400.017639 23.961050,400.277771 23.002018,400.421783 
	C23.002018,401.209320 23.002016,401.705994 23.002016,402.202637 
	C23.001354,735.789490 22.999628,1069.376343 23.036518,1402.963135 
	C23.036667,1404.307129 23.590540,1405.651245 23.933001,1407.422363 
	C23.703810,1411.243286 23.427427,1414.637085 23.080940,1418.495239 
	C23.010838,1439.202881 23.010838,1459.446167 23.010838,1480.000000 
	C25.265017,1480.000000 27.064552,1480.000000 28.864088,1480.000000 
	C103.243149,1480.000000 177.622208,1480.002686 252.001266,1479.993530 
	C256.656860,1479.992920 261.312469,1479.899658 266.259064,1479.848145 
	C272.675781,1479.897827 278.801453,1479.988403 284.927185,1479.992920 
	C308.570496,1480.010132 332.214081,1480.060791 355.856934,1479.959473 
	C362.240479,1479.932251 368.621887,1479.413574 375.212006,1479.502686 
	C377.416260,1479.923218 379.412811,1479.995239 381.409332,1479.995361 
	C593.944885,1480.000488 806.480469,1479.999512 1019.016052,1480.006836 
	C1021.010559,1480.006958 1023.005005,1480.110840 1024.999512,1480.166260 
	C1024.999634,1596.472168 1024.999878,1712.778198 1025.000000,1829.541992 
	C683.703308,1830.000000 342.406586,1830.000000 1.054932,1830.000000 
	C1.054932,1220.435425 1.054932,610.870728 1.054932,1.000000 
	C342.027985,1.000000 683.056030,1.000000 1024.541992,1.000000 
z"/>
<path fill="#FFFFFF" opacity="1.000000" stroke="none" 
	d="
M2049.488525,1830.000000 
	C2049.000000,1220.631714 2049.000000,611.263489 2049.000000,1.447632 
	C2050.666260,1.000000 2052.332520,1.000000 2053.993408,1.000000 
	C2053.988037,610.666687 2053.988037,1220.333374 2053.981934,1830.000000 
	C2052.643066,1830.000000 2051.310059,1830.000000 2049.488525,1830.000000 
z"/>
<path fill="#000000" opacity="1.000000" stroke="none" 
	d="
M1025.462891,1480.096680 
	C1023.005005,1480.110840 1021.010559,1480.006958 1019.016052,1480.006836 
	C806.480469,1479.999512 593.944885,1480.000488 381.409332,1479.995361 
	C379.412811,1479.995239 377.416260,1479.923218 375.594452,1479.313477 
	C380.623260,1478.163208 385.484467,1477.638184 390.330170,1476.996094 
	C407.668793,1474.698486 425.016449,1472.462280 442.333984,1470.013916 
	C465.109741,1466.793823 487.251587,1460.826782 509.168396,1454.011353 
	C539.311401,1444.637939 568.304443,1432.389160 595.099854,1415.741821 
	C611.693848,1405.432495 627.670166,1393.857300 642.681396,1381.358276 
	C654.533691,1371.489258 664.766418,1359.595947 675.223999,1348.150024 
	C689.630981,1332.381470 701.040955,1314.416260 710.716064,1295.473999 
	C721.770874,1273.830688 730.143188,1251.151245 735.451904,1227.312744 
	C739.450439,1209.357300 742.653137,1191.284546 742.813721,1172.948975 
	C742.981689,1153.765503 742.160461,1134.534546 740.814209,1115.391724 
	C740.028198,1104.214844 737.972412,1093.028931 735.426758,1082.094238 
	C729.792358,1057.892212 721.127991,1034.749634 708.572327,1013.219971 
	C704.564392,1006.347412 699.881042,999.868774 695.491943,993.228455 
	C695.477112,993.247009 695.450378,993.215698 695.301392,992.940918 
	C693.695312,990.633545 692.238220,988.600952 690.713379,986.468018 
	C690.645569,986.367615 690.454651,986.218506 690.314331,985.962402 
	C689.375610,984.659546 688.577332,983.612732 687.711426,982.467529 
	C687.643860,982.369141 687.457031,982.220398 687.312744,981.957092 
	C686.126404,980.424438 685.084412,979.155090 683.973633,977.658325 
	C683.720459,977.141052 683.456970,976.983215 682.977051,976.650757 
	C681.573975,974.857849 680.308228,973.371765 678.973633,971.658325 
	C678.720459,971.141052 678.456970,970.983215 677.977051,970.650757 
	C676.573975,968.857849 675.308228,967.371765 673.909607,965.582336 
	C666.889343,958.505188 660.001831,951.731384 652.974365,944.650269 
	C650.903748,942.857239 648.973022,941.371399 646.907104,939.579468 
	C640.345703,933.903992 634.325867,927.929932 627.413025,923.284729 
	C610.385132,911.842407 593.150391,900.676453 575.625549,890.012695 
	C550.338074,874.625305 523.263184,862.833252 495.795258,851.956177 
	C481.133026,846.150085 466.302124,840.767456 451.669495,834.889526 
	C431.444458,826.765320 411.326782,818.373291 391.177765,810.060486 
	C369.287018,801.029114 347.827942,790.995117 328.320068,777.535767 
	C317.287445,769.923889 307.475891,760.542175 296.980011,751.654968 
	C295.822906,750.088806 294.800140,748.825317 293.709351,747.464050 
	C293.641296,747.366333 293.454590,747.218567 293.314209,746.962524 
	C292.375549,745.659607 291.577271,744.612732 290.762268,743.553955 
	C290.745575,743.541931 290.787354,743.517029 290.583313,743.216980 
	C284.143860,731.950745 279.265686,720.701965 277.703308,707.828552 
	C275.536774,689.976685 277.893433,673.148560 286.027130,657.291382 
	C294.961121,639.874023 308.828156,627.153564 325.795410,617.627136 
	C352.474091,602.648010 381.665649,596.686584 411.687866,595.232971 
	C435.794006,594.065857 460.032227,594.337891 484.033936,598.008545 
	C500.801514,600.572754 517.591675,603.034668 534.286804,606.017639 
	C567.276855,611.911987 598.650146,623.064087 629.400696,636.099426 
	C635.659607,638.752747 641.804199,641.676086 648.587158,644.739441 
	C666.431335,580.213135 684.077454,516.403198 701.915649,451.898438 
	C686.211121,445.890961 670.726013,439.560547 654.961365,434.026764 
	C627.307556,424.319611 599.083557,416.551025 570.093262,412.017029 
	C548.628113,408.659882 527.060181,405.956787 505.531372,403.010925 
	C499.701691,402.213257 493.847839,401.592041 488.005096,400.889832 
	C489.846558,400.593201 491.687988,400.037292 493.529510,400.036835 
	C670.376953,399.993347 847.224365,399.992096 1024.535645,399.910889 
	C1027.162598,399.889099 1029.325684,399.993073 1031.488647,399.993103 
	C1363.975342,400.000305 1696.462158,400.000000 2028.948853,400.000000 
	C2031.089600,400.000000 2033.230347,400.000000 2035.363037,400.000000 
	C2035.363037,741.738342 2035.363037,1083.156616 2035.363037,1424.574951 
	C2034.880371,1424.635864 2034.397827,1424.696899 2033.915161,1424.757812 
	C2033.610107,1423.219727 2033.100342,1421.690674 2033.031494,1420.142212 
	C2032.312500,1403.943848 2031.729736,1387.739258 2030.974121,1371.542725 
	C2030.420044,1359.670166 2029.654175,1347.807373 2029.001709,1335.939209 
	C2028.321899,1323.572510 2027.672241,1311.204102 2026.996582,1298.837158 
	C2026.338989,1286.802612 2025.661255,1274.769043 2024.999268,1262.734741 
	C2024.328003,1250.534180 2023.665894,1238.333252 2022.998901,1226.132446 
	C2022.331787,1213.931641 2021.666382,1201.730835 2020.995239,1189.530151 
	C2020.333252,1177.495972 2019.660767,1165.462158 2019.000244,1153.427856 
	C2017.995728,1135.126831 2016.999756,1116.825439 2015.994995,1098.524414 
	C2015.334351,1086.489990 2014.661011,1074.456421 2014.000366,1062.421997 
	C2012.995728,1044.120972 2011.999512,1025.819702 2010.994751,1007.518738 
	C2010.334106,995.484436 2009.654541,983.451050 2009.001953,971.416321 
	C2007.991455,952.782410 2007.006714,934.147034 2005.991943,915.513367 
	C2005.345581,903.644897 2004.661133,891.778503 2003.999512,879.910828 
	C2003.328857,867.876953 2002.658203,855.843079 2002.000610,843.808472 
	C2001.324951,831.441589 2000.675171,819.073303 1999.994995,806.706665 
	C1999.342163,794.838440 1998.651489,782.972351 1998.002930,771.103943 
	C1997.318115,758.570862 1996.679688,746.035217 1995.990845,733.502319 
	C1995.347656,721.800293 1994.644165,710.101624 1994.005249,698.399414 
	C1993.311768,685.700073 1992.684082,672.997070 1991.986694,660.297974 
	C1991.353027,648.762146 1990.636108,637.230896 1990.006470,625.694885 
	C1988.980469,606.895081 1988.012573,588.092224 1986.986572,569.292419 
	C1986.356934,557.756409 1985.636230,546.225342 1985.006592,534.689331 
	C1983.980469,515.889526 1983.012573,497.086578 1981.986694,478.286804 
	C1981.356934,466.750793 1980.713867,455.215057 1979.984253,443.685089 
	C1979.426636,434.876953 1978.723877,426.078003 1978.065918,417.000000 
	C1975.767700,417.000000 1974.123901,417.000000 1972.480103,417.000000 
	C1872.817383,417.000000 1773.154785,417.028625 1673.492188,416.903076 
	C1669.173950,416.897644 1667.239136,418.083954 1665.910400,422.322266 
	C1656.418823,452.598969 1646.652588,482.789764 1636.941406,512.997437 
	C1627.977905,540.878723 1618.949707,568.739319 1609.995361,596.623535 
	C1600.941040,624.818848 1591.981201,653.044434 1582.908325,681.233765 
	C1574.334839,707.871948 1565.239746,734.351013 1557.160034,761.137085 
	C1548.614868,789.466675 1540.950684,818.062988 1532.989258,846.567200 
	C1526.033691,871.470337 1519.019043,896.359253 1512.361816,921.342773 
	C1505.367188,947.592346 1498.697388,973.929321 1492.009155,1000.259460 
	C1481.794312,1040.473145 1471.685181,1080.713623 1461.532593,1120.943115 
	C1459.864380,1127.553101 1458.202515,1134.164551 1456.060791,1142.669312 
	C1454.181763,1140.115601 1452.447632,1138.774048 1452.108398,1137.142456 
	C1448.063354,1117.684692 1444.360718,1098.155640 1440.300537,1078.701294 
	C1434.977905,1053.197876 1429.692993,1027.681152 1423.881592,1002.286865 
	C1417.747681,975.483032 1411.080322,948.800232 1404.522339,922.094910 
	C1398.430664,897.288330 1392.337158,872.480225 1385.949585,847.749023 
	C1378.994629,820.820984 1372.040039,793.884521 1364.467163,767.126587 
	C1355.035645,733.800781 1344.944092,700.661926 1335.189331,667.427185 
	C1326.945801,639.341064 1318.739746,611.243896 1310.583496,583.132385 
	C1301.656860,552.366028 1292.864258,521.560791 1283.902588,490.804657 
	C1277.669678,469.413696 1271.311401,448.058655 1264.886597,426.724457 
	C1261.946045,416.959778 1261.812378,417.000000 1251.385620,417.000000 
	C1151.389648,417.000000 1051.393555,417.000000 951.397583,417.000000 
	C949.437073,417.000000 947.476562,417.000000 945.308228,417.000000 
	C923.029907,766.419617 900.777832,1115.426880 878.505920,1464.745972 
	C952.376282,1464.745972 1025.310791,1464.745972 1098.388672,1464.745972 
	C1098.540283,1464.418213 1098.898682,1463.994873 1098.913696,1463.559692 
	C1099.297852,1452.461548 1099.574829,1441.359375 1100.017334,1430.263672 
	C1100.617065,1415.226929 1101.303833,1400.193237 1102.018921,1385.161499 
	C1102.631226,1372.291626 1103.383911,1359.428345 1103.987549,1346.558105 
	C1104.708374,1331.193237 1105.312622,1315.822876 1106.012085,1300.457031 
	C1106.643311,1286.588013 1107.352051,1272.722778 1107.995483,1258.854248 
	C1108.685059,1243.987915 1109.314087,1229.118652 1110.014648,1214.252808 
	C1110.644775,1200.883789 1111.363159,1187.518921 1111.992676,1174.149780 
	C1112.692505,1159.283936 1113.322144,1144.414795 1114.007812,1129.548340 
	C1114.655029,1115.513428 1115.315552,1101.479004 1116.006348,1087.446167 
	C1116.648071,1074.410889 1117.325928,1061.377319 1118.009766,1048.344116 
	C1118.658569,1035.975830 1119.366089,1023.610474 1119.992798,1011.241089 
	C1120.695190,997.375488 1121.357910,983.507812 1121.996826,969.639099 
	C1122.689209,954.606384 1123.359741,939.572449 1123.993408,924.537109 
	C1124.690308,908.004456 1125.344971,891.470032 1125.998413,874.935547 
	C1126.677979,857.735535 1127.336548,840.534546 1127.999878,823.333923 
	C1128.669556,805.966736 1129.328857,788.599304 1130.002075,771.232300 
	C1130.662354,754.198120 1131.324097,737.164001 1132.003906,720.130615 
	C1132.657104,703.762817 1133.246094,687.391724 1134.030396,671.030090 
	C1134.602905,659.085388 1135.446045,647.153625 1136.168457,635.216125 
	C1136.671753,635.105469 1137.174927,634.994751 1137.678101,634.884094 
	C1138.432495,637.285522 1139.430176,639.639954 1139.904419,642.095459 
	C1145.993408,673.622803 1151.730957,705.221008 1158.132568,736.684204 
	C1162.869629,759.966003 1168.335205,783.102600 1173.675659,806.257874 
	C1181.356445,839.559998 1188.885742,872.902649 1197.094971,906.075745 
	C1205.534302,940.178894 1214.603760,974.127991 1223.601074,1008.090576 
	C1231.263916,1037.016357 1239.139771,1065.886353 1247.063721,1094.741821 
	C1253.781128,1119.203491 1260.780151,1143.587646 1267.512573,1168.045166 
	C1275.108887,1195.641357 1282.456055,1223.306030 1290.078857,1250.894897 
	C1297.484131,1277.696411 1305.213623,1304.408447 1312.594727,1331.216675 
	C1320.538086,1360.067017 1328.200317,1388.994751 1336.073242,1417.864746 
	C1338.769531,1427.752197 1341.731812,1437.567017 1344.741333,1448.000000 
	C1346.207153,1448.000000 1348.172852,1448.000000 1350.138428,1448.000000 
	C1408.302734,1448.000000 1466.467285,1447.951782 1524.631226,1448.092773 
	C1529.226807,1448.103882 1531.184814,1447.159180 1532.606445,1442.213379 
	C1538.356445,1422.206909 1544.905884,1402.430420 1551.144775,1382.564331 
	C1560.647095,1352.306519 1570.183716,1322.059448 1579.617065,1291.780151 
	C1587.504028,1266.464600 1595.197510,1241.088745 1603.096191,1215.776855 
	C1612.882935,1184.414551 1622.847290,1153.107788 1632.631836,1121.744873 
	C1640.528687,1096.432373 1648.132690,1071.028076 1656.122925,1045.745483 
	C1664.162842,1020.305359 1672.812378,995.055603 1680.667725,969.560059 
	C1692.015625,932.728699 1703.119263,895.818176 1713.894409,858.815430 
	C1723.260254,826.652588 1732.301147,794.388916 1740.988159,762.036194 
	C1752.250244,720.093140 1763.004883,678.013855 1774.068237,636.017029 
	C1774.409302,634.722290 1775.752563,633.691589 1776.628662,632.537781 
	C1777.085815,632.777344 1777.542847,633.016907 1778.000000,633.256531 
	C1778.000000,636.230652 1777.979614,639.204956 1778.003052,642.178894 
	C1778.331909,683.777893 1778.611084,725.377380 1779.025635,766.975586 
	C1779.206055,785.077026 1779.643311,803.176086 1780.007568,821.275391 
	C1780.304688,836.042786 1780.651001,850.809265 1781.005249,865.575500 
	C1781.315430,878.509521 1781.651978,891.442932 1782.004761,904.375854 
	C1782.316528,915.809998 1782.657349,927.243286 1783.003052,938.676453 
	C1783.323486,949.277039 1783.652954,959.877380 1784.003296,970.476990 
	C1784.659912,990.344482 1785.326172,1010.211670 1786.005249,1030.078369 
	C1786.316162,1039.179321 1786.655029,1048.279541 1787.003052,1057.379150 
	C1787.660889,1074.580078 1788.334473,1091.780518 1789.001099,1108.981079 
	C1789.667847,1126.181641 1790.338867,1143.381958 1790.999146,1160.582764 
	C1791.672241,1178.116577 1792.322632,1195.651001 1793.005005,1213.184326 
	C1793.655029,1229.885498 1794.348877,1246.585083 1794.995972,1263.286377 
	C1795.681763,1280.986328 1796.321411,1298.687866 1797.007080,1316.387817 
	C1797.654053,1333.089111 1798.348877,1349.788574 1798.996094,1366.489868 
	C1799.682007,1384.189819 1800.323975,1401.891235 1801.011475,1419.591064 
	C1801.306885,1427.192871 1801.610229,1434.795166 1802.016846,1442.391479 
	C1802.405518,1449.653931 1802.933105,1456.908813 1803.435059,1464.716064 
	C1880.526001,1464.716064 1957.910889,1464.716064 2035.647339,1464.716064 
	C2035.647339,1469.959473 2035.647339,1474.679077 2035.647339,1480.000000 
	C2033.546021,1480.000000 2031.440063,1480.000000 2029.334229,1480.000000 
	C1697.014160,1480.000000 1364.694092,1480.000000 1032.374023,1480.001099 
	C1030.224854,1480.001099 1028.075562,1480.017944 1025.462891,1480.096680 
z"/>
<path fill="#000000" opacity="1.000000" stroke="none" 
	d="
M2034.317993,1426.605225 
	C2035.213379,1430.693237 2035.878906,1435.170166 2036.544434,1439.646973 
	C2035.725586,1439.723511 2034.906860,1439.800049 2034.088135,1439.876587 
	C2034.088135,1435.582397 2034.088135,1431.288208 2034.317993,1426.605225 
z"/>
<path fill="#000000" opacity="1.000000" stroke="none" 
	d="
M23.885803,1406.995239 
	C23.590540,1405.651245 23.036667,1404.307129 23.036518,1402.963135 
	C22.999628,1069.376343 23.001354,735.789490 23.002016,402.202637 
	C23.002016,401.705994 23.002018,401.209320 23.002018,400.421783 
	C23.961050,400.277771 24.884897,400.017639 25.808784,400.017487 
	C144.113785,399.999451 262.418793,400.000214 380.723816,400.009033 
	C381.383514,400.009064 382.043243,400.135040 382.696259,400.954285 
	C365.961426,403.795471 349.204376,405.679077 332.512146,408.023956 
	C309.905457,411.199615 287.910248,417.074768 266.173401,423.937836 
	C238.427261,432.698212 211.974777,444.368225 186.803040,458.999634 
	C166.653198,470.712036 147.656265,484.103180 130.765350,500.066406 
	C118.544975,511.615662 106.781517,523.951294 96.650917,537.327271 
	C85.580040,551.944580 75.707870,567.667969 66.974197,583.807983 
	C55.642986,604.748413 47.863693,627.330627 43.305527,650.726196 
	C40.309288,666.104919 38.137627,681.769470 37.257935,697.399597 
	C36.402882,712.591858 37.071632,727.946960 38.188442,743.148560 
	C39.070595,755.156006 40.978603,767.188599 43.609570,778.946289 
	C49.191841,803.893066 58.719101,827.405334 71.840981,849.376892 
	C75.417824,855.366089 79.597549,860.995239 83.513947,866.769897 
	C83.527298,866.750122 83.549530,866.784241 83.698563,867.059021 
	C85.304688,869.366394 86.761772,871.398987 88.286659,873.531982 
	C88.354462,873.632324 88.545380,873.781372 88.685730,874.037476 
	C89.624397,875.340332 90.422707,876.387207 91.288582,877.532593 
	C91.356148,877.631165 91.543129,877.779968 91.686920,878.042358 
	C92.867653,879.566406 93.904602,880.828125 94.965347,882.050293 
	C94.989136,882.010742 94.910118,882.058411 95.042862,882.365234 
	C96.436241,884.152771 97.696884,885.633545 99.055840,887.379761 
	C99.731308,888.110901 100.308464,888.576660 101.022911,889.349243 
	C102.425980,891.142090 103.691765,892.628174 105.090347,894.417725 
	C112.777298,902.161560 120.331436,909.601990 128.025558,917.349670 
	C130.096222,919.142700 132.026886,920.628479 134.026352,922.341675 
	C134.279465,922.859009 134.542953,923.016785 135.025345,923.349365 
	C137.090591,925.134155 139.016098,926.612000 140.965286,928.050293 
	C140.988953,928.010742 140.910049,928.058411 141.049255,928.370056 
	C144.199234,930.939575 147.209991,933.197449 150.294464,935.547119 
	C150.368164,935.638794 150.560440,935.774414 150.722534,936.033447 
	C160.860565,943.322144 170.729095,950.510437 180.832611,957.351746 
	C211.045151,977.809326 243.721466,993.722168 277.342438,1007.487427 
	C312.186371,1021.753296 347.843689,1034.030884 382.703094,1048.261230 
	C399.824341,1055.250488 416.105042,1064.391357 432.453033,1073.143433 
	C440.734406,1077.576904 448.320312,1083.309692 456.294128,1088.546387 
	C456.367615,1088.637939 456.558716,1088.773926 456.716644,1089.027344 
	C458.568878,1090.558472 460.263214,1091.836304 462.090271,1093.417480 
	C467.443848,1098.828003 472.664642,1103.935059 478.019775,1109.344849 
	C479.176941,1110.911011 480.199768,1112.174561 481.239258,1113.449951 
	C481.255890,1113.461792 481.214081,1113.486694 481.415649,1113.782471 
	C484.087952,1118.102051 486.788391,1122.004395 488.990875,1126.169922 
	C500.524658,1147.983643 502.776031,1171.283569 497.751740,1194.973755 
	C492.492859,1219.770142 478.636719,1239.460327 457.801453,1254.016479 
	C437.942078,1267.890869 415.667236,1275.888794 391.963318,1279.914917 
	C380.838409,1281.804321 369.576843,1283.301025 358.319855,1283.902710 
	C342.084778,1284.770264 325.779816,1285.259033 309.538086,1284.779297 
	C296.616455,1284.397583 283.726715,1282.476074 270.856689,1280.952148 
	C260.633484,1279.741699 250.327454,1278.711792 240.294983,1276.518677 
	C219.972672,1272.075928 199.713486,1267.266357 179.606674,1261.935059 
	C152.055130,1254.630127 125.373276,1244.739624 99.375496,1233.050049 
	C90.026527,1228.846436 80.787498,1224.398193 71.266479,1219.953369 
	C70.811104,1220.929443 70.255852,1221.747803 70.035019,1222.648315 
	C66.162361,1238.438721 62.372921,1254.249634 58.481136,1270.035278 
	C50.346931,1303.028687 42.223991,1336.024902 33.969498,1368.988281 
	C30.785835,1381.701660 27.257235,1394.328857 23.885803,1406.995239 
z"/>
<path fill="#419BCA" opacity="1.000000" stroke="none" 
	d="
M23.932997,1407.422363 
	C27.257235,1394.328857 30.785835,1381.701660 33.969498,1368.988281 
	C42.223991,1336.024902 50.346931,1303.028687 58.481136,1270.035278 
	C62.372921,1254.249634 66.162361,1238.438721 70.035019,1222.648315 
	C70.255852,1221.747803 70.811104,1220.929443 71.266479,1219.953369 
	C80.787498,1224.398193 90.026527,1228.846436 99.375496,1233.050049 
	C125.373276,1244.739624 152.055130,1254.630127 179.606674,1261.935059 
	C199.713486,1267.266357 219.972672,1272.075928 240.294983,1276.518677 
	C250.327454,1278.711792 260.633484,1279.741699 270.856689,1280.952148 
	C283.726715,1282.476074 296.616455,1284.397583 309.538086,1284.779297 
	C325.779816,1285.259033 342.084778,1284.770264 358.319855,1283.902710 
	C369.576843,1283.301025 380.838409,1281.804321 391.963318,1279.914917 
	C415.667236,1275.888794 437.942078,1267.890869 457.801453,1254.016479 
	C478.636719,1239.460327 492.492859,1219.770142 497.751740,1194.973755 
	C502.776031,1171.283569 500.524658,1147.983643 488.990875,1126.169922 
	C486.788391,1122.004395 484.087952,1118.102051 481.799194,1113.688232 
	C482.878967,1113.896362 484.045715,1114.301636 484.634918,1115.121704 
	C496.572693,1131.739136 503.173309,1150.292725 503.938141,1170.733643 
	C504.500885,1185.775146 502.420685,1200.365112 496.210236,1214.374023 
	C490.963898,1226.208252 484.298065,1237.087280 475.160309,1246.036377 
	C460.883789,1260.018066 443.420807,1269.223022 424.817261,1276.111938 
	C402.399109,1284.413574 378.906281,1287.932129 355.215698,1288.800171 
	C327.350800,1289.821289 299.409821,1289.522461 271.753326,1284.993042 
	C251.531967,1281.681519 231.221542,1278.708740 211.203705,1274.407837 
	C181.688660,1268.066650 152.991165,1258.700928 124.893753,1247.696411 
	C111.458000,1242.434204 98.462166,1236.044922 85.292221,1230.110229 
	C81.831245,1228.550659 78.463837,1226.783447 74.496452,1224.838501 
	C73.905769,1226.958984 73.390015,1228.650391 72.964149,1230.364258 
	C69.368362,1244.835327 65.761742,1259.303589 62.209717,1273.785400 
	C51.077972,1319.170654 40.057869,1364.583496 28.712238,1409.915039 
	C27.580868,1414.435303 28.925777,1416.051025 32.585033,1417.892334 
	C62.882355,1433.138428 94.998062,1443.350464 127.654030,1451.864868 
	C159.367966,1460.133545 191.495575,1466.547485 224.132645,1470.011353 
	C244.519348,1472.175049 264.914490,1475.273560 285.352692,1475.698120 
	C315.410065,1476.322510 345.564392,1477.475952 375.582489,1474.017700 
	C392.984009,1472.012817 410.418182,1470.261475 427.785370,1467.995361 
	C455.123627,1464.427979 481.805389,1457.821411 508.034119,1449.442261 
	C537.103821,1440.155396 564.928406,1427.990601 591.201843,1412.389771 
	C625.220520,1392.189819 655.054810,1367.104248 679.436707,1335.851929 
	C699.882629,1309.644653 714.969116,1280.550171 724.936707,1248.808228 
	C732.510010,1224.690918 737.744934,1200.003540 738.743896,1174.822021 
	C739.834717,1147.322754 739.665527,1119.777588 734.218445,1092.466309 
	C727.854065,1060.555542 717.604919,1030.346558 699.684143,1002.963257 
	C697.776917,1000.049011 696.874939,996.476868 695.506714,993.209900 
	C699.881042,999.868774 704.564392,1006.347412 708.572327,1013.219971 
	C721.127991,1034.749634 729.792358,1057.892212 735.426758,1082.094238 
	C737.972412,1093.028931 740.028198,1104.214844 740.814209,1115.391724 
	C742.160461,1134.534546 742.981689,1153.765503 742.813721,1172.948975 
	C742.653137,1191.284546 739.450439,1209.357300 735.451904,1227.312744 
	C730.143188,1251.151245 721.770874,1273.830688 710.716064,1295.473999 
	C701.040955,1314.416260 689.630981,1332.381470 675.223999,1348.150024 
	C664.766418,1359.595947 654.533691,1371.489258 642.681396,1381.358276 
	C627.670166,1393.857300 611.693848,1405.432495 595.099854,1415.741821 
	C568.304443,1432.389160 539.311401,1444.637939 509.168396,1454.011353 
	C487.251587,1460.826782 465.109741,1466.793823 442.333984,1470.013916 
	C425.016449,1472.462280 407.668793,1474.698486 390.330170,1476.996094 
	C385.484467,1477.638184 380.623260,1478.163208 375.386719,1478.931274 
	C368.621887,1479.413574 362.240479,1479.932251 355.856934,1479.959473 
	C332.214081,1480.060791 308.570496,1480.010132 284.927185,1479.992920 
	C278.801453,1479.988403 272.675781,1479.897827 266.239258,1479.427979 
	C265.438782,1478.680908 264.973694,1478.111816 264.455902,1478.059082 
	C250.916016,1476.675659 237.333023,1475.642944 223.836014,1473.930298 
	C207.810028,1471.896729 191.735535,1469.900635 175.904785,1466.764160 
	C157.756027,1463.168335 139.811417,1458.500122 121.849808,1454.010986 
	C89.412994,1445.904297 58.005421,1434.933105 28.178440,1419.666870 
	C26.629223,1418.874268 24.832514,1418.565186 23.151043,1418.030884 
	C23.427427,1414.637085 23.703810,1411.243286 23.932997,1407.422363 
z"/>
<path fill="#419BCA" opacity="1.000000" stroke="none" 
	d="
M83.500595,866.789612 
	C79.597549,860.995239 75.417824,855.366089 71.840981,849.376892 
	C58.719101,827.405334 49.191841,803.893066 43.609570,778.946289 
	C40.978603,767.188599 39.070595,755.156006 38.188442,743.148560 
	C37.071632,727.946960 36.402882,712.591858 37.257935,697.399597 
	C38.137627,681.769470 40.309288,666.104919 43.305527,650.726196 
	C47.863693,627.330627 55.642986,604.748413 66.974197,583.807983 
	C75.707870,567.667969 85.580040,551.944580 96.650917,537.327271 
	C106.781517,523.951294 118.544975,511.615662 130.765350,500.066406 
	C147.656265,484.103180 166.653198,470.712036 186.803040,458.999634 
	C211.974777,444.368225 238.427261,432.698212 266.173401,423.937836 
	C287.910248,417.074768 309.905457,411.199615 332.512146,408.023956 
	C349.204376,405.679077 365.961426,403.795471 382.922363,401.337830 
	C389.743988,400.646240 396.331543,400.078888 402.921936,400.044464 
	C425.238525,399.927856 447.556305,399.942627 469.873108,400.038849 
	C475.726288,400.064087 481.577393,400.565796 487.717285,400.869263 
	C493.847839,401.592041 499.701691,402.213257 505.531372,403.010925 
	C527.060181,405.956787 548.628113,408.659882 570.093262,412.017029 
	C599.083557,416.551025 627.307556,424.319611 654.961365,434.026764 
	C670.726013,439.560547 686.211121,445.890961 701.915649,451.898438 
	C684.077454,516.403198 666.431335,580.213135 648.587158,644.739441 
	C641.804199,641.676086 635.659607,638.752747 629.400696,636.099426 
	C598.650146,623.064087 567.276855,611.911987 534.286804,606.017639 
	C517.591675,603.034668 500.801514,600.572754 484.033936,598.008545 
	C460.032227,594.337891 435.794006,594.065857 411.687866,595.232971 
	C381.665649,596.686584 352.474091,602.648010 325.795410,617.627136 
	C308.828156,627.153564 294.961121,639.874023 286.027130,657.291382 
	C277.893433,673.148560 275.536774,689.976685 277.703308,707.828552 
	C279.265686,720.701965 284.143860,731.950745 290.196381,743.310303 
	C289.321014,743.366760 288.348297,743.218262 287.976776,742.665649 
	C275.700714,724.405457 270.461670,704.031494 273.332428,682.466064 
	C277.121735,654.000732 292.875275,632.428955 316.832550,617.216125 
	C345.660065,598.910645 378.119904,592.420776 411.633789,591.164795 
	C436.012543,590.251160 460.463257,590.487610 484.727722,593.990051 
	C499.281616,596.090942 513.959229,597.562256 528.367004,600.403015 
	C563.468140,607.323914 597.470642,617.947571 630.178772,632.558960 
	C634.962463,634.695923 639.763611,636.794006 644.841003,639.035645 
	C645.583069,637.214661 646.276489,635.903809 646.663025,634.507935 
	C657.986450,593.610840 669.275635,552.704346 680.578918,511.801697 
	C685.524475,493.905701 690.471741,476.010132 695.465027,458.127441 
	C696.141296,455.705505 696.637146,453.496033 693.599670,452.363007 
	C679.288391,447.024628 665.225159,440.838074 650.605225,436.550995 
	C626.138855,429.376648 601.497192,422.578064 576.587036,417.209320 
	C556.605774,412.902832 536.161804,410.589539 515.838989,408.070862 
	C500.420441,406.159943 484.878387,404.344391 469.375549,404.202576 
	C436.996979,403.906342 404.543823,402.560303 372.279205,406.977295 
	C358.691742,408.837372 344.979736,409.978577 331.506683,412.443146 
	C304.278839,417.423828 277.435333,424.073242 251.531860,434.027985 
	C240.199066,438.383118 228.552734,442.232422 217.845810,447.834656 
	C201.101395,456.595947 184.629623,466.027069 168.772049,476.300751 
	C143.081467,492.944946 121.060097,513.953796 101.969482,537.780518 
	C81.970833,562.740601 66.609642,590.358215 56.402470,620.884644 
	C48.258076,645.242004 42.627010,670.137390 41.307343,695.626953 
	C40.031086,720.277771 40.055233,745.076660 44.939487,769.584412 
	C50.932995,799.657959 60.712440,828.172302 77.392128,854.126404 
	C79.907120,858.039734 81.487762,862.553528 83.500595,866.789612 
z"/>
<path fill="#000000" opacity="1.000000" stroke="none" 
	d="
M23.080940,1418.495239 
	C24.832514,1418.565186 26.629223,1418.874268 28.178440,1419.666870 
	C58.005421,1434.933105 89.412994,1445.904297 121.849808,1454.010986 
	C139.811417,1458.500122 157.756027,1463.168335 175.904785,1466.764160 
	C191.735535,1469.900635 207.810028,1471.896729 223.836014,1473.930298 
	C237.333023,1475.642944 250.916016,1476.675659 264.455902,1478.059082 
	C264.973694,1478.111816 265.438782,1478.680908 265.948242,1479.429443 
	C261.312469,1479.899658 256.656860,1479.992920 252.001266,1479.993530 
	C177.622208,1480.002686 103.243149,1480.000000 28.864088,1480.000000 
	C27.064552,1480.000000 25.265017,1480.000000 23.010838,1480.000000 
	C23.010838,1459.446167 23.010838,1439.202881 23.080940,1418.495239 
z"/>
<path fill="#419BCA" opacity="1.000000" stroke="none" 
	d="
M83.513947,866.769897 
	C81.487762,862.553528 79.907120,858.039734 77.392128,854.126404 
	C60.712440,828.172302 50.932995,799.657959 44.939487,769.584412 
	C40.055233,745.076660 40.031086,720.277771 41.307343,695.626953 
	C42.627010,670.137390 48.258076,645.242004 56.402470,620.884644 
	C66.609642,590.358215 81.970833,562.740601 101.969482,537.780518 
	C121.060097,513.953796 143.081467,492.944946 168.772049,476.300751 
	C184.629623,466.027069 201.101395,456.595947 217.845810,447.834656 
	C228.552734,442.232422 240.199066,438.383118 251.531860,434.027985 
	C277.435333,424.073242 304.278839,417.423828 331.506683,412.443146 
	C344.979736,409.978577 358.691742,408.837372 372.279205,406.977295 
	C404.543823,402.560303 436.996979,403.906342 469.375549,404.202576 
	C484.878387,404.344391 500.420441,406.159943 515.838989,408.070862 
	C536.161804,410.589539 556.605774,412.902832 576.587036,417.209320 
	C601.497192,422.578064 626.138855,429.376648 650.605225,436.550995 
	C665.225159,440.838074 679.288391,447.024628 693.599670,452.363007 
	C696.637146,453.496033 696.141296,455.705505 695.465027,458.127441 
	C690.471741,476.010132 685.524475,493.905701 680.578918,511.801697 
	C669.275635,552.704346 657.986450,593.610840 646.663025,634.507935 
	C646.276489,635.903809 645.583069,637.214661 644.841003,639.035645 
	C639.763611,636.794006 634.962463,634.695923 630.178772,632.558960 
	C597.470642,617.947571 563.468140,607.323914 528.367004,600.403015 
	C513.959229,597.562256 499.281616,596.090942 484.727722,593.990051 
	C460.463257,590.487610 436.012543,590.251160 411.633789,591.164795 
	C378.119904,592.420776 345.660065,598.910645 316.832550,617.216125 
	C292.875275,632.428955 277.121735,654.000732 273.332428,682.466064 
	C270.461670,704.031494 275.700714,724.405457 287.976776,742.665649 
	C288.348297,743.218262 289.321014,743.366760 290.400391,743.610352 
	C290.787354,743.517029 290.745575,743.541931 290.540588,743.907349 
	C291.375275,745.254639 292.414948,746.236633 293.454590,747.218567 
	C293.454590,747.218567 293.641296,747.366333 293.489899,747.816345 
	C294.597137,749.496765 295.855743,750.727173 297.114380,751.957581 
	C307.475891,760.542175 317.287445,769.923889 328.320068,777.535767 
	C347.827942,790.995117 369.287018,801.029114 391.177765,810.060486 
	C411.326782,818.373291 431.444458,826.765320 451.669495,834.889526 
	C466.302124,840.767456 481.133026,846.150085 495.795258,851.956177 
	C523.263184,862.833252 550.338074,874.625305 575.625549,890.012695 
	C593.150391,900.676453 610.385132,911.842407 627.413025,923.284729 
	C634.325867,927.929932 640.345703,933.903992 646.899414,939.968506 
	C647.314453,944.563965 649.907043,945.196472 653.114319,944.957581 
	C660.001831,951.731384 666.889343,958.505188 673.902405,965.971313 
	C674.247803,969.181885 674.925476,971.264587 678.114258,970.957520 
	C678.456970,970.983215 678.720459,971.141052 678.966431,972.047241 
	C679.247803,975.181885 679.925476,977.264587 683.114258,976.957520 
	C683.456970,976.983215 683.720459,977.141052 683.966248,978.047974 
	C684.475159,980.521057 684.033447,983.234802 687.457031,982.220398 
	C687.457031,982.220398 687.643860,982.369141 687.489746,982.820984 
	C688.375305,984.254761 689.414978,985.236633 690.454651,986.218506 
	C690.454651,986.218506 690.645569,986.367615 690.492126,986.810181 
	C691.134644,990.018677 691.106506,993.491089 695.450378,993.215698 
	C695.450378,993.215698 695.477112,993.247009 695.491882,993.228455 
	C696.874939,996.476868 697.776917,1000.049011 699.684143,1002.963257 
	C717.604919,1030.346558 727.854065,1060.555542 734.218445,1092.466309 
	C739.665527,1119.777588 739.834717,1147.322754 738.743896,1174.822021 
	C737.744934,1200.003540 732.510010,1224.690918 724.936707,1248.808228 
	C714.969116,1280.550171 699.882629,1309.644653 679.436707,1335.851929 
	C655.054810,1367.104248 625.220520,1392.189819 591.201843,1412.389771 
	C564.928406,1427.990601 537.103821,1440.155396 508.034119,1449.442261 
	C481.805389,1457.821411 455.123627,1464.427979 427.785370,1467.995361 
	C410.418182,1470.261475 392.984009,1472.012817 375.582489,1474.017700 
	C345.564392,1477.475952 315.410065,1476.322510 285.352692,1475.698120 
	C264.914490,1475.273560 244.519348,1472.175049 224.132645,1470.011353 
	C191.495575,1466.547485 159.367966,1460.133545 127.654030,1451.864868 
	C94.998062,1443.350464 62.882355,1433.138428 32.585033,1417.892334 
	C28.925777,1416.051025 27.580868,1414.435303 28.712238,1409.915039 
	C40.057869,1364.583496 51.077972,1319.170654 62.209717,1273.785400 
	C65.761742,1259.303589 69.368362,1244.835327 72.964149,1230.364258 
	C73.390015,1228.650391 73.905769,1226.958984 74.496452,1224.838501 
	C78.463837,1226.783447 81.831245,1228.550659 85.292221,1230.110229 
	C98.462166,1236.044922 111.458000,1242.434204 124.893753,1247.696411 
	C152.991165,1258.700928 181.688660,1268.066650 211.203705,1274.407837 
	C231.221542,1278.708740 251.531967,1281.681519 271.753326,1284.993042 
	C299.409821,1289.522461 327.350800,1289.821289 355.215698,1288.800171 
	C378.906281,1287.932129 402.399109,1284.413574 424.817261,1276.111938 
	C443.420807,1269.223022 460.883789,1260.018066 475.160309,1246.036377 
	C484.298065,1237.087280 490.963898,1226.208252 496.210236,1214.374023 
	C502.420685,1200.365112 504.500885,1185.775146 503.938141,1170.733643 
	C503.173309,1150.292725 496.572693,1131.739136 484.634918,1115.121704 
	C484.045715,1114.301636 482.878967,1113.896362 481.597626,1113.392334 
	C481.214081,1113.486694 481.255890,1113.461792 481.458710,1113.097656 
	C480.402832,1111.503052 479.144135,1110.272705 477.885437,1109.042236 
	C472.664642,1103.935059 467.443848,1098.828003 462.096863,1093.017822 
	C461.568176,1088.992676 460.368774,1086.888306 456.558716,1088.773926 
	C456.558716,1088.773926 456.367615,1088.637939 456.512573,1088.194580 
	C456.161072,1086.591431 455.987579,1085.007568 455.114288,1084.342529 
	C450.342712,1080.708618 445.654266,1076.851318 440.464233,1073.903564 
	C427.727631,1066.670044 415.118439,1059.017578 401.758148,1053.118652 
	C376.890015,1042.138794 351.792236,1031.559814 326.296875,1022.150269 
	C294.667664,1010.477051 263.259064,998.370056 233.040894,983.409851 
	C219.325485,976.619812 205.845322,969.273193 192.700043,961.438110 
	C181.671112,954.864502 171.446335,946.950317 160.503784,940.217590 
	C157.543045,938.395813 155.505173,933.442444 150.560440,935.774414 
	C150.560440,935.774414 150.368164,935.638794 150.513062,935.194214 
	C149.064102,930.107544 145.910172,927.738220 140.910049,928.058411 
	C140.910049,928.058411 140.988953,928.010742 140.977264,927.652954 
	C140.898453,923.076233 138.155533,922.682617 134.885605,923.042419 
	C134.542953,923.016785 134.279465,922.859009 134.032928,921.943359 
	C133.905167,917.098938 131.174088,916.674011 127.885590,917.042419 
	C120.331436,909.601990 112.777298,902.161560 105.097610,894.028748 
	C104.752228,890.817993 104.074295,888.735474 100.885612,889.042419 
	C100.308464,888.576660 99.731308,888.110901 99.063187,886.991821 
	C98.741974,883.845276 98.112968,881.730469 94.910118,882.058411 
	C94.910118,882.058411 94.989136,882.010742 94.978149,881.661743 
	C94.523926,879.458496 94.950951,876.760803 91.543129,877.779968 
	C91.543129,877.779968 91.356148,877.631165 91.510239,877.179199 
	C90.624680,875.745239 89.585022,874.763306 88.545380,873.781372 
	C88.545380,873.781372 88.354462,873.632324 88.507904,873.189819 
	C87.865471,869.981201 87.893326,866.508911 83.549530,866.784241 
	C83.549530,866.784241 83.527298,866.750122 83.513947,866.769897 
z"/>
<path fill="#419BCA" opacity="1.000000" stroke="none" 
	d="
M695.301392,992.940918 
	C691.106506,993.491089 691.134644,990.018677 690.559937,986.910522 
	C692.238220,988.600952 693.695312,990.633545 695.301392,992.940918 
z"/>
<path fill="#419BCA" opacity="1.000000" stroke="none" 
	d="
M652.974365,944.650269 
	C649.907043,945.196472 647.314453,944.563965 647.034668,940.274658 
	C648.973022,941.371399 650.903748,942.857239 652.974365,944.650269 
z"/>
<path fill="#419BCA" opacity="1.000000" stroke="none" 
	d="
M677.977051,970.650757 
	C674.925476,971.264587 674.247803,969.181885 674.035217,966.274658 
	C675.308228,967.371765 676.573975,968.857849 677.977051,970.650757 
z"/>
<path fill="#419BCA" opacity="1.000000" stroke="none" 
	d="
M682.977051,976.650757 
	C679.925476,977.264587 679.247803,975.181885 679.035217,972.274658 
	C680.308228,973.371765 681.573975,974.857849 682.977051,976.650757 
z"/>
<path fill="#419BCA" opacity="1.000000" stroke="none" 
	d="
M687.312744,981.957092 
	C684.033447,983.234802 684.475159,980.521057 684.035034,978.275269 
	C685.084412,979.155090 686.126404,980.424438 687.312744,981.957092 
z"/>
<path fill="#419BCA" opacity="1.000000" stroke="none" 
	d="
M296.980042,751.654968 
	C295.855743,750.727173 294.597137,749.496765 293.557953,747.914062 
	C294.800140,748.825317 295.822906,750.088806 296.980042,751.654968 
z"/>
<path fill="#419BCA" opacity="1.000000" stroke="none" 
	d="
M293.314209,746.962524 
	C292.414948,746.236633 291.375275,745.254639 290.557312,743.919312 
	C291.577271,744.612732 292.375549,745.659607 293.314209,746.962524 
z"/>
<path fill="#419BCA" opacity="1.000000" stroke="none" 
	d="
M690.314331,985.962402 
	C689.414978,985.236633 688.375305,984.254761 687.557373,982.919373 
	C688.577332,983.612732 689.375610,984.659546 690.314331,985.962402 
z"/>
<path fill="#419BCA" opacity="1.000000" stroke="none" 
	d="
M150.722534,936.033447 
	C155.505173,933.442444 157.543045,938.395813 160.503784,940.217590 
	C171.446335,946.950317 181.671112,954.864502 192.700043,961.438110 
	C205.845322,969.273193 219.325485,976.619812 233.040894,983.409851 
	C263.259064,998.370056 294.667664,1010.477051 326.296875,1022.150269 
	C351.792236,1031.559814 376.890015,1042.138794 401.758148,1053.118652 
	C415.118439,1059.017578 427.727631,1066.670044 440.464233,1073.903564 
	C445.654266,1076.851318 450.342712,1080.708618 455.114288,1084.342529 
	C455.987579,1085.007568 456.161072,1086.591431 456.439117,1088.103027 
	C448.320312,1083.309692 440.734406,1077.576904 432.453033,1073.143433 
	C416.105042,1064.391357 399.824341,1055.250488 382.703094,1048.261230 
	C347.843689,1034.030884 312.186371,1021.753296 277.342438,1007.487427 
	C243.721466,993.722168 211.045151,977.809326 180.832611,957.351746 
	C170.729095,950.510437 160.860565,943.322144 150.722534,936.033447 
z"/>
<path fill="#419BCA" opacity="1.000000" stroke="none" 
	d="
M141.049255,928.370056 
	C145.910172,927.738220 149.064102,930.107544 150.439362,935.102539 
	C147.209991,933.197449 144.199234,930.939575 141.049255,928.370056 
z"/>
<path fill="#419BCA" opacity="1.000000" stroke="none" 
	d="
M83.698563,867.059021 
	C87.893326,866.508911 87.865471,869.981201 88.440094,873.089478 
	C86.761772,871.398987 85.304688,869.366394 83.698563,867.059021 
z"/>
<path fill="#419BCA" opacity="1.000000" stroke="none" 
	d="
M135.025345,923.349365 
	C138.155533,922.682617 140.898453,923.076233 140.953613,927.692505 
	C139.016098,926.612000 137.090591,925.134155 135.025345,923.349365 
z"/>
<path fill="#419BCA" opacity="1.000000" stroke="none" 
	d="
M128.025574,917.349670 
	C131.174088,916.674011 133.905167,917.098938 133.964142,921.716064 
	C132.026886,920.628479 130.096222,919.142700 128.025574,917.349670 
z"/>
<path fill="#419BCA" opacity="1.000000" stroke="none" 
	d="
M456.716644,1089.027344 
	C460.368774,1086.888306 461.568176,1088.992676 461.964111,1092.714600 
	C460.263214,1091.836304 458.568878,1090.558472 456.716644,1089.027344 
z"/>
<path fill="#419BCA" opacity="1.000000" stroke="none" 
	d="
M101.022903,889.349243 
	C104.074295,888.735474 104.752228,890.817993 104.964813,893.725342 
	C103.691765,892.628174 102.425980,891.142090 101.022903,889.349243 
z"/>
<path fill="#419BCA" opacity="1.000000" stroke="none" 
	d="
M95.042862,882.365234 
	C98.112968,881.730469 98.741974,883.845276 98.964859,886.726440 
	C97.696884,885.633545 96.436241,884.152771 95.042862,882.365234 
z"/>
<path fill="#419BCA" opacity="1.000000" stroke="none" 
	d="
M91.686920,878.042358 
	C94.950951,876.760803 94.523926,879.458496 94.954361,881.701294 
	C93.904602,880.828125 92.867653,879.566406 91.686920,878.042358 
z"/>
<path fill="#419BCA" opacity="1.000000" stroke="none" 
	d="
M478.019775,1109.344849 
	C479.144135,1110.272705 480.402832,1111.503052 481.442078,1113.085815 
	C480.199768,1112.174561 479.176941,1110.911011 478.019775,1109.344849 
z"/>
<path fill="#419BCA" opacity="1.000000" stroke="none" 
	d="
M88.685730,874.037476 
	C89.585022,874.763306 90.624680,875.745239 91.442673,877.080566 
	C90.422707,876.387207 89.624397,875.340332 88.685730,874.037476 
z"/>
</svg>